<?xml version="1.0" encoding="UTF-8"?>
<svg xmlns="http://www.w3.org/2000/svg" width="600" height="600" viewBox="0 0 600 600" role="img" aria-label="One Step Closer medallion">
<defs>
    <radialGradient id="med-ring" cx="0.5" cy="0.5" r="0.55">
      <stop offset="0.7" stop-color="#5C1A2B"></stop>
      <stop offset="1" stop-color="#2A0810"></stop>
    </radialGradient>
    <path id="med-title-path" d="M 38 300 A 262 262 0 0 1 562 300"></path>
    <path id="med-sub-path" d="M 22 300 A 278 278 0 0 0 578 300"></path>
  </defs><circle cx="300" cy="300" r="296" fill="url(#med-ring)" stroke="#2A0810" stroke-width="2"></circle><text fill="#FAF5EA" font-family="&#39;Outfit&#39;, system-ui, sans-serif" font-weight="500" font-size="34.800000000000004" letter-spacing="6"><textPath href="#med-title-path" startOffset="50%" text-anchor="middle">ONE STEP CLOSER</textPath></text><text fill="#E0B964" font-family="&#39;Outfit&#39;, system-ui, sans-serif" font-weight="400" font-size="20.400000000000002" letter-spacing="6"><textPath href="#med-sub-path" startOffset="50%" text-anchor="middle">✦   HOSPITALITY TOGETHER   ✦</textPath></text><circle cx="300" cy="300" r="246" fill="none" stroke="#3F1019" stroke-width="2.16"></circle>
<circle cx="300" cy="300" r="222" fill="none" stroke="#3F1019" stroke-width="2.16"></circle>
<g transform="rotate(0 300 300) translate(300 66)"><path d="M -13.722476710880215 -12 L 13.722476710880215 -12 M -13.722476710880215 12 L 13.722476710880215 12 M -7.841415263360123 -12 L -7.841415263360123 6.06 L 7.841415263360123 6.06 L 7.841415263360123 -6.06 L -1.9603538158400298 -6.06 L -1.9603538158400298 9.624" stroke="#3F1019" stroke-width="2.4" fill="none" stroke-linecap="square" stroke-linejoin="miter"></path></g>
<g transform="rotate(8 300 300) translate(300 66)"><path d="M -13.722476710880215 -12 L 13.722476710880215 -12 M -13.722476710880215 12 L 13.722476710880215 12 M -7.841415263360123 -12 L -7.841415263360123 6.06 L 7.841415263360123 6.06 L 7.841415263360123 -6.06 L -1.9603538158400298 -6.06 L -1.9603538158400298 9.624" stroke="#3F1019" stroke-width="2.4" fill="none" stroke-linecap="square" stroke-linejoin="miter"></path></g>
<g transform="rotate(16 300 300) translate(300 66)"><path d="M -13.722476710880215 -12 L 13.722476710880215 -12 M -13.722476710880215 12 L 13.722476710880215 12 M -7.841415263360123 -12 L -7.841415263360123 6.06 L 7.841415263360123 6.06 L 7.841415263360123 -6.06 L -1.9603538158400298 -6.06 L -1.9603538158400298 9.624" stroke="#3F1019" stroke-width="2.4" fill="none" stroke-linecap="square" stroke-linejoin="miter"></path></g>
<g transform="rotate(24 300 300) translate(300 66)"><path d="M -13.722476710880215 -12 L 13.722476710880215 -12 M -13.722476710880215 12 L 13.722476710880215 12 M -7.841415263360123 -12 L -7.841415263360123 6.06 L 7.841415263360123 6.06 L 7.841415263360123 -6.06 L -1.9603538158400298 -6.06 L -1.9603538158400298 9.624" stroke="#3F1019" stroke-width="2.4" fill="none" stroke-linecap="square" stroke-linejoin="miter"></path></g>
<g transform="rotate(32 300 300) translate(300 66)"><path d="M -13.722476710880215 -12 L 13.722476710880215 -12 M -13.722476710880215 12 L 13.722476710880215 12 M -7.841415263360123 -12 L -7.841415263360123 6.06 L 7.841415263360123 6.06 L 7.841415263360123 -6.06 L -1.9603538158400298 -6.06 L -1.9603538158400298 9.624" stroke="#3F1019" stroke-width="2.4" fill="none" stroke-linecap="square" stroke-linejoin="miter"></path></g>
<g transform="rotate(40 300 300) translate(300 66)"><path d="M -13.722476710880215 -12 L 13.722476710880215 -12 M -13.722476710880215 12 L 13.722476710880215 12 M -7.841415263360123 -12 L -7.841415263360123 6.06 L 7.841415263360123 6.06 L 7.841415263360123 -6.06 L -1.9603538158400298 -6.06 L -1.9603538158400298 9.624" stroke="#3F1019" stroke-width="2.4" fill="none" stroke-linecap="square" stroke-linejoin="miter"></path></g>
<g transform="rotate(48 300 300) translate(300 66)"><path d="M -13.722476710880215 -12 L 13.722476710880215 -12 M -13.722476710880215 12 L 13.722476710880215 12 M -7.841415263360123 -12 L -7.841415263360123 6.06 L 7.841415263360123 6.06 L 7.841415263360123 -6.06 L -1.9603538158400298 -6.06 L -1.9603538158400298 9.624" stroke="#3F1019" stroke-width="2.4" fill="none" stroke-linecap="square" stroke-linejoin="miter"></path></g>
<g transform="rotate(56 300 300) translate(300 66)"><path d="M -13.722476710880215 -12 L 13.722476710880215 -12 M -13.722476710880215 12 L 13.722476710880215 12 M -7.841415263360123 -12 L -7.841415263360123 6.06 L 7.841415263360123 6.06 L 7.841415263360123 -6.06 L -1.9603538158400298 -6.06 L -1.9603538158400298 9.624" stroke="#3F1019" stroke-width="2.4" fill="none" stroke-linecap="square" stroke-linejoin="miter"></path></g>
<g transform="rotate(64 300 300) translate(300 66)"><path d="M -13.722476710880215 -12 L 13.722476710880215 -12 M -13.722476710880215 12 L 13.722476710880215 12 M -7.841415263360123 -12 L -7.841415263360123 6.06 L 7.841415263360123 6.06 L 7.841415263360123 -6.06 L -1.9603538158400298 -6.06 L -1.9603538158400298 9.624" stroke="#3F1019" stroke-width="2.4" fill="none" stroke-linecap="square" stroke-linejoin="miter"></path></g>
<g transform="rotate(72 300 300) translate(300 66)"><path d="M -13.722476710880215 -12 L 13.722476710880215 -12 M -13.722476710880215 12 L 13.722476710880215 12 M -7.841415263360123 -12 L -7.841415263360123 6.06 L 7.841415263360123 6.06 L 7.841415263360123 -6.06 L -1.9603538158400298 -6.06 L -1.9603538158400298 9.624" stroke="#3F1019" stroke-width="2.4" fill="none" stroke-linecap="square" stroke-linejoin="miter"></path></g>
<g transform="rotate(80 300 300) translate(300 66)"><path d="M -13.722476710880215 -12 L 13.722476710880215 -12 M -13.722476710880215 12 L 13.722476710880215 12 M -7.841415263360123 -12 L -7.841415263360123 6.06 L 7.841415263360123 6.06 L 7.841415263360123 -6.06 L -1.9603538158400298 -6.06 L -1.9603538158400298 9.624" stroke="#3F1019" stroke-width="2.4" fill="none" stroke-linecap="square" stroke-linejoin="miter"></path></g>
<g transform="rotate(88 300 300) translate(300 66)"><path d="M -13.722476710880215 -12 L 13.722476710880215 -12 M -13.722476710880215 12 L 13.722476710880215 12 M -7.841415263360123 -12 L -7.841415263360123 6.06 L 7.841415263360123 6.06 L 7.841415263360123 -6.06 L -1.9603538158400298 -6.06 L -1.9603538158400298 9.624" stroke="#3F1019" stroke-width="2.4" fill="none" stroke-linecap="square" stroke-linejoin="miter"></path></g>
<g transform="rotate(96 300 300) translate(300 66)"><path d="M -13.722476710880215 -12 L 13.722476710880215 -12 M -13.722476710880215 12 L 13.722476710880215 12 M -7.841415263360123 -12 L -7.841415263360123 6.06 L 7.841415263360123 6.06 L 7.841415263360123 -6.06 L -1.9603538158400298 -6.06 L -1.9603538158400298 9.624" stroke="#3F1019" stroke-width="2.4" fill="none" stroke-linecap="square" stroke-linejoin="miter"></path></g>
<g transform="rotate(103.99999999999999 300 300) translate(300 66)"><path d="M -13.722476710880215 -12 L 13.722476710880215 -12 M -13.722476710880215 12 L 13.722476710880215 12 M -7.841415263360123 -12 L -7.841415263360123 6.06 L 7.841415263360123 6.06 L 7.841415263360123 -6.06 L -1.9603538158400298 -6.06 L -1.9603538158400298 9.624" stroke="#3F1019" stroke-width="2.4" fill="none" stroke-linecap="square" stroke-linejoin="miter"></path></g>
<g transform="rotate(112 300 300) translate(300 66)"><path d="M -13.722476710880215 -12 L 13.722476710880215 -12 M -13.722476710880215 12 L 13.722476710880215 12 M -7.841415263360123 -12 L -7.841415263360123 6.06 L 7.841415263360123 6.06 L 7.841415263360123 -6.06 L -1.9603538158400298 -6.06 L -1.9603538158400298 9.624" stroke="#3F1019" stroke-width="2.4" fill="none" stroke-linecap="square" stroke-linejoin="miter"></path></g>
<g transform="rotate(120 300 300) translate(300 66)"><path d="M -13.722476710880215 -12 L 13.722476710880215 -12 M -13.722476710880215 12 L 13.722476710880215 12 M -7.841415263360123 -12 L -7.841415263360123 6.06 L 7.841415263360123 6.06 L 7.841415263360123 -6.06 L -1.9603538158400298 -6.06 L -1.9603538158400298 9.624" stroke="#3F1019" stroke-width="2.4" fill="none" stroke-linecap="square" stroke-linejoin="miter"></path></g>
<g transform="rotate(128 300 300) translate(300 66)"><path d="M -13.722476710880215 -12 L 13.722476710880215 -12 M -13.722476710880215 12 L 13.722476710880215 12 M -7.841415263360123 -12 L -7.841415263360123 6.06 L 7.841415263360123 6.06 L 7.841415263360123 -6.06 L -1.9603538158400298 -6.06 L -1.9603538158400298 9.624" stroke="#3F1019" stroke-width="2.4" fill="none" stroke-linecap="square" stroke-linejoin="miter"></path></g>
<g transform="rotate(136 300 300) translate(300 66)"><path d="M -13.722476710880215 -12 L 13.722476710880215 -12 M -13.722476710880215 12 L 13.722476710880215 12 M -7.841415263360123 -12 L -7.841415263360123 6.06 L 7.841415263360123 6.06 L 7.841415263360123 -6.06 L -1.9603538158400298 -6.06 L -1.9603538158400298 9.624" stroke="#3F1019" stroke-width="2.4" fill="none" stroke-linecap="square" stroke-linejoin="miter"></path></g>
<g transform="rotate(144 300 300) translate(300 66)"><path d="M -13.722476710880215 -12 L 13.722476710880215 -12 M -13.722476710880215 12 L 13.722476710880215 12 M -7.841415263360123 -12 L -7.841415263360123 6.06 L 7.841415263360123 6.06 L 7.841415263360123 -6.06 L -1.9603538158400298 -6.06 L -1.9603538158400298 9.624" stroke="#3F1019" stroke-width="2.4" fill="none" stroke-linecap="square" stroke-linejoin="miter"></path></g>
<g transform="rotate(152 300 300) translate(300 66)"><path d="M -13.722476710880215 -12 L 13.722476710880215 -12 M -13.722476710880215 12 L 13.722476710880215 12 M -7.841415263360123 -12 L -7.841415263360123 6.06 L 7.841415263360123 6.06 L 7.841415263360123 -6.06 L -1.9603538158400298 -6.06 L -1.9603538158400298 9.624" stroke="#3F1019" stroke-width="2.4" fill="none" stroke-linecap="square" stroke-linejoin="miter"></path></g>
<g transform="rotate(160 300 300) translate(300 66)"><path d="M -13.722476710880215 -12 L 13.722476710880215 -12 M -13.722476710880215 12 L 13.722476710880215 12 M -7.841415263360123 -12 L -7.841415263360123 6.06 L 7.841415263360123 6.06 L 7.841415263360123 -6.06 L -1.9603538158400298 -6.06 L -1.9603538158400298 9.624" stroke="#3F1019" stroke-width="2.4" fill="none" stroke-linecap="square" stroke-linejoin="miter"></path></g>
<g transform="rotate(168 300 300) translate(300 66)"><path d="M -13.722476710880215 -12 L 13.722476710880215 -12 M -13.722476710880215 12 L 13.722476710880215 12 M -7.841415263360123 -12 L -7.841415263360123 6.06 L 7.841415263360123 6.06 L 7.841415263360123 -6.06 L -1.9603538158400298 -6.06 L -1.9603538158400298 9.624" stroke="#3F1019" stroke-width="2.4" fill="none" stroke-linecap="square" stroke-linejoin="miter"></path></g>
<g transform="rotate(176 300 300) translate(300 66)"><path d="M -13.722476710880215 -12 L 13.722476710880215 -12 M -13.722476710880215 12 L 13.722476710880215 12 M -7.841415263360123 -12 L -7.841415263360123 6.06 L 7.841415263360123 6.06 L 7.841415263360123 -6.06 L -1.9603538158400298 -6.06 L -1.9603538158400298 9.624" stroke="#3F1019" stroke-width="2.4" fill="none" stroke-linecap="square" stroke-linejoin="miter"></path></g>
<g transform="rotate(184 300 300) translate(300 66)"><path d="M -13.722476710880215 -12 L 13.722476710880215 -12 M -13.722476710880215 12 L 13.722476710880215 12 M -7.841415263360123 -12 L -7.841415263360123 6.06 L 7.841415263360123 6.06 L 7.841415263360123 -6.06 L -1.9603538158400298 -6.06 L -1.9603538158400298 9.624" stroke="#3F1019" stroke-width="2.4" fill="none" stroke-linecap="square" stroke-linejoin="miter"></path></g>
<g transform="rotate(192 300 300) translate(300 66)"><path d="M -13.722476710880215 -12 L 13.722476710880215 -12 M -13.722476710880215 12 L 13.722476710880215 12 M -7.841415263360123 -12 L -7.841415263360123 6.06 L 7.841415263360123 6.06 L 7.841415263360123 -6.06 L -1.9603538158400298 -6.06 L -1.9603538158400298 9.624" stroke="#3F1019" stroke-width="2.4" fill="none" stroke-linecap="square" stroke-linejoin="miter"></path></g>
<g transform="rotate(200 300 300) translate(300 66)"><path d="M -13.722476710880215 -12 L 13.722476710880215 -12 M -13.722476710880215 12 L 13.722476710880215 12 M -7.841415263360123 -12 L -7.841415263360123 6.06 L 7.841415263360123 6.06 L 7.841415263360123 -6.06 L -1.9603538158400298 -6.06 L -1.9603538158400298 9.624" stroke="#3F1019" stroke-width="2.4" fill="none" stroke-linecap="square" stroke-linejoin="miter"></path></g>
<g transform="rotate(207.99999999999997 300 300) translate(300 66)"><path d="M -13.722476710880215 -12 L 13.722476710880215 -12 M -13.722476710880215 12 L 13.722476710880215 12 M -7.841415263360123 -12 L -7.841415263360123 6.06 L 7.841415263360123 6.06 L 7.841415263360123 -6.06 L -1.9603538158400298 -6.06 L -1.9603538158400298 9.624" stroke="#3F1019" stroke-width="2.4" fill="none" stroke-linecap="square" stroke-linejoin="miter"></path></g>
<g transform="rotate(216 300 300) translate(300 66)"><path d="M -13.722476710880215 -12 L 13.722476710880215 -12 M -13.722476710880215 12 L 13.722476710880215 12 M -7.841415263360123 -12 L -7.841415263360123 6.06 L 7.841415263360123 6.06 L 7.841415263360123 -6.06 L -1.9603538158400298 -6.06 L -1.9603538158400298 9.624" stroke="#3F1019" stroke-width="2.4" fill="none" stroke-linecap="square" stroke-linejoin="miter"></path></g>
<g transform="rotate(224 300 300) translate(300 66)"><path d="M -13.722476710880215 -12 L 13.722476710880215 -12 M -13.722476710880215 12 L 13.722476710880215 12 M -7.841415263360123 -12 L -7.841415263360123 6.06 L 7.841415263360123 6.06 L 7.841415263360123 -6.06 L -1.9603538158400298 -6.06 L -1.9603538158400298 9.624" stroke="#3F1019" stroke-width="2.4" fill="none" stroke-linecap="square" stroke-linejoin="miter"></path></g>
<g transform="rotate(232.00000000000003 300 300) translate(300 66)"><path d="M -13.722476710880215 -12 L 13.722476710880215 -12 M -13.722476710880215 12 L 13.722476710880215 12 M -7.841415263360123 -12 L -7.841415263360123 6.06 L 7.841415263360123 6.06 L 7.841415263360123 -6.06 L -1.9603538158400298 -6.06 L -1.9603538158400298 9.624" stroke="#3F1019" stroke-width="2.4" fill="none" stroke-linecap="square" stroke-linejoin="miter"></path></g>
<g transform="rotate(240 300 300) translate(300 66)"><path d="M -13.722476710880215 -12 L 13.722476710880215 -12 M -13.722476710880215 12 L 13.722476710880215 12 M -7.841415263360123 -12 L -7.841415263360123 6.06 L 7.841415263360123 6.06 L 7.841415263360123 -6.06 L -1.9603538158400298 -6.06 L -1.9603538158400298 9.624" stroke="#3F1019" stroke-width="2.4" fill="none" stroke-linecap="square" stroke-linejoin="miter"></path></g>
<g transform="rotate(248 300 300) translate(300 66)"><path d="M -13.722476710880215 -12 L 13.722476710880215 -12 M -13.722476710880215 12 L 13.722476710880215 12 M -7.841415263360123 -12 L -7.841415263360123 6.06 L 7.841415263360123 6.06 L 7.841415263360123 -6.06 L -1.9603538158400298 -6.06 L -1.9603538158400298 9.624" stroke="#3F1019" stroke-width="2.4" fill="none" stroke-linecap="square" stroke-linejoin="miter"></path></g>
<g transform="rotate(256 300 300) translate(300 66)"><path d="M -13.722476710880215 -12 L 13.722476710880215 -12 M -13.722476710880215 12 L 13.722476710880215 12 M -7.841415263360123 -12 L -7.841415263360123 6.06 L 7.841415263360123 6.06 L 7.841415263360123 -6.06 L -1.9603538158400298 -6.06 L -1.9603538158400298 9.624" stroke="#3F1019" stroke-width="2.4" fill="none" stroke-linecap="square" stroke-linejoin="miter"></path></g>
<g transform="rotate(264 300 300) translate(300 66)"><path d="M -13.722476710880215 -12 L 13.722476710880215 -12 M -13.722476710880215 12 L 13.722476710880215 12 M -7.841415263360123 -12 L -7.841415263360123 6.06 L 7.841415263360123 6.06 L 7.841415263360123 -6.06 L -1.9603538158400298 -6.06 L -1.9603538158400298 9.624" stroke="#3F1019" stroke-width="2.4" fill="none" stroke-linecap="square" stroke-linejoin="miter"></path></g>
<g transform="rotate(272 300 300) translate(300 66)"><path d="M -13.722476710880215 -12 L 13.722476710880215 -12 M -13.722476710880215 12 L 13.722476710880215 12 M -7.841415263360123 -12 L -7.841415263360123 6.06 L 7.841415263360123 6.06 L 7.841415263360123 -6.06 L -1.9603538158400298 -6.06 L -1.9603538158400298 9.624" stroke="#3F1019" stroke-width="2.4" fill="none" stroke-linecap="square" stroke-linejoin="miter"></path></g>
<g transform="rotate(280 300 300) translate(300 66)"><path d="M -13.722476710880215 -12 L 13.722476710880215 -12 M -13.722476710880215 12 L 13.722476710880215 12 M -7.841415263360123 -12 L -7.841415263360123 6.06 L 7.841415263360123 6.06 L 7.841415263360123 -6.06 L -1.9603538158400298 -6.06 L -1.9603538158400298 9.624" stroke="#3F1019" stroke-width="2.4" fill="none" stroke-linecap="square" stroke-linejoin="miter"></path></g>
<g transform="rotate(288 300 300) translate(300 66)"><path d="M -13.722476710880215 -12 L 13.722476710880215 -12 M -13.722476710880215 12 L 13.722476710880215 12 M -7.841415263360123 -12 L -7.841415263360123 6.06 L 7.841415263360123 6.06 L 7.841415263360123 -6.06 L -1.9603538158400298 -6.06 L -1.9603538158400298 9.624" stroke="#3F1019" stroke-width="2.4" fill="none" stroke-linecap="square" stroke-linejoin="miter"></path></g>
<g transform="rotate(296 300 300) translate(300 66)"><path d="M -13.722476710880215 -12 L 13.722476710880215 -12 M -13.722476710880215 12 L 13.722476710880215 12 M -7.841415263360123 -12 L -7.841415263360123 6.06 L 7.841415263360123 6.06 L 7.841415263360123 -6.06 L -1.9603538158400298 -6.06 L -1.9603538158400298 9.624" stroke="#3F1019" stroke-width="2.4" fill="none" stroke-linecap="square" stroke-linejoin="miter"></path></g>
<g transform="rotate(304 300 300) translate(300 66)"><path d="M -13.722476710880215 -12 L 13.722476710880215 -12 M -13.722476710880215 12 L 13.722476710880215 12 M -7.841415263360123 -12 L -7.841415263360123 6.06 L 7.841415263360123 6.06 L 7.841415263360123 -6.06 L -1.9603538158400298 -6.06 L -1.9603538158400298 9.624" stroke="#3F1019" stroke-width="2.4" fill="none" stroke-linecap="square" stroke-linejoin="miter"></path></g>
<g transform="rotate(312 300 300) translate(300 66)"><path d="M -13.722476710880215 -12 L 13.722476710880215 -12 M -13.722476710880215 12 L 13.722476710880215 12 M -7.841415263360123 -12 L -7.841415263360123 6.06 L 7.841415263360123 6.06 L 7.841415263360123 -6.06 L -1.9603538158400298 -6.06 L -1.9603538158400298 9.624" stroke="#3F1019" stroke-width="2.4" fill="none" stroke-linecap="square" stroke-linejoin="miter"></path></g>
<g transform="rotate(320 300 300) translate(300 66)"><path d="M -13.722476710880215 -12 L 13.722476710880215 -12 M -13.722476710880215 12 L 13.722476710880215 12 M -7.841415263360123 -12 L -7.841415263360123 6.06 L 7.841415263360123 6.06 L 7.841415263360123 -6.06 L -1.9603538158400298 -6.06 L -1.9603538158400298 9.624" stroke="#3F1019" stroke-width="2.4" fill="none" stroke-linecap="square" stroke-linejoin="miter"></path></g>
<g transform="rotate(328 300 300) translate(300 66)"><path d="M -13.722476710880215 -12 L 13.722476710880215 -12 M -13.722476710880215 12 L 13.722476710880215 12 M -7.841415263360123 -12 L -7.841415263360123 6.06 L 7.841415263360123 6.06 L 7.841415263360123 -6.06 L -1.9603538158400298 -6.06 L -1.9603538158400298 9.624" stroke="#3F1019" stroke-width="2.4" fill="none" stroke-linecap="square" stroke-linejoin="miter"></path></g>
<g transform="rotate(336 300 300) translate(300 66)"><path d="M -13.722476710880215 -12 L 13.722476710880215 -12 M -13.722476710880215 12 L 13.722476710880215 12 M -7.841415263360123 -12 L -7.841415263360123 6.06 L 7.841415263360123 6.06 L 7.841415263360123 -6.06 L -1.9603538158400298 -6.06 L -1.9603538158400298 9.624" stroke="#3F1019" stroke-width="2.4" fill="none" stroke-linecap="square" stroke-linejoin="miter"></path></g>
<g transform="rotate(344 300 300) translate(300 66)"><path d="M -13.722476710880215 -12 L 13.722476710880215 -12 M -13.722476710880215 12 L 13.722476710880215 12 M -7.841415263360123 -12 L -7.841415263360123 6.06 L 7.841415263360123 6.06 L 7.841415263360123 -6.06 L -1.9603538158400298 -6.06 L -1.9603538158400298 9.624" stroke="#3F1019" stroke-width="2.4" fill="none" stroke-linecap="square" stroke-linejoin="miter"></path></g>
<g transform="rotate(352 300 300) translate(300 66)"><path d="M -13.722476710880215 -12 L 13.722476710880215 -12 M -13.722476710880215 12 L 13.722476710880215 12 M -7.841415263360123 -12 L -7.841415263360123 6.06 L 7.841415263360123 6.06 L 7.841415263360123 -6.06 L -1.9603538158400298 -6.06 L -1.9603538158400298 9.624" stroke="#3F1019" stroke-width="2.4" fill="none" stroke-linecap="square" stroke-linejoin="miter"></path></g><circle cx="300" cy="300" r="214" fill="#FAF5EA" stroke="#5C1A2B" stroke-width="2"></circle><circle cx="300" cy="300" r="214" fill="none" stroke="#C8923A" stroke-width="1" opacity="0.5"></circle><g transform="translate(88 88)"><svg width="424" height="424" viewBox="0 0 424 424" x="0" y="0"><defs><clipPath id="cl-clip"><circle cx="212" cy="212" r="211"></circle></clipPath><radialGradient id="cl-bg" cx="0.5" cy="0.5" r="0.7"><stop offset="0" stop-color="#FAF5EA"></stop><stop offset="1" stop-color="#EDE0C4"></stop></radialGradient></defs><g clip-path="url(#cl-clip)"><rect x="0" y="0" width="424" height="424" fill="url(#cl-bg)"></rect><line x1="288.32" y1="212" x2="407.04" y2="212" stroke="#C8923A" stroke-width="1.2" opacity="0.35"></line><line x1="282.5104859212614" y1="241.20639955810364" x2="392.1934640210014" y2="286.6385766484871" stroke="#C8923A" stroke-width="1.2" opacity="0.35"></line><line x1="265.9663895401573" y1="265.9663895401573" x2="349.91410660262426" y2="349.9141066026242" stroke="#C8923A" stroke-width="1.2" opacity="0.35"></line><line x1="241.20639955810367" y1="282.5104859212614" x2="286.6385766484871" y2="392.1934640210014" stroke="#C8923A" stroke-width="1.2" opacity="0.35"></line><line x1="212" y1="288.32" x2="212" y2="407.04" stroke="#C8923A" stroke-width="1.2" opacity="0.35"></line><line x1="182.79360044189636" y1="282.5104859212614" x2="137.36142335151288" y2="392.1934640210014" stroke="#C8923A" stroke-width="1.2" opacity="0.35"></line><line x1="158.0336104598427" y1="265.9663895401573" x2="74.08589339737577" y2="349.91410660262426" stroke="#C8923A" stroke-width="1.2" opacity="0.35"></line><line x1="141.48951407873858" y1="241.20639955810367" x2="31.806535978998625" y2="286.6385766484872" stroke="#C8923A" stroke-width="1.2" opacity="0.35"></line><line x1="135.68" y1="212" x2="16.95999999999998" y2="212.00000000000003" stroke="#C8923A" stroke-width="1.2" opacity="0.35"></line><line x1="141.48951407873858" y1="182.79360044189636" x2="31.806535978998596" y2="137.3614233515129" stroke="#C8923A" stroke-width="1.2" opacity="0.35"></line><line x1="158.0336104598427" y1="158.0336104598427" x2="74.08589339737571" y2="74.08589339737577" stroke="#C8923A" stroke-width="1.2" opacity="0.35"></line><line x1="182.7936004418963" y1="141.48951407873864" x2="137.36142335151277" y2="31.80653597899868" stroke="#C8923A" stroke-width="1.2" opacity="0.35"></line><line x1="212" y1="135.68" x2="211.99999999999997" y2="16.95999999999998" stroke="#C8923A" stroke-width="1.2" opacity="0.35"></line><line x1="241.20639955810367" y1="141.4895140787386" x2="286.6385766484872" y2="31.806535978998653" stroke="#C8923A" stroke-width="1.2" opacity="0.35"></line><line x1="265.9663895401573" y1="158.0336104598427" x2="349.9141066026242" y2="74.08589339737571" stroke="#C8923A" stroke-width="1.2" opacity="0.35"></line><line x1="282.51048592126136" y1="182.7936004418963" x2="392.1934640210013" y2="137.36142335151277" stroke="#C8923A" stroke-width="1.2" opacity="0.35"></line><circle cx="212" cy="212" r="144.16" fill="#F2E8D5" stroke="#5C1A2B" stroke-width="2"></circle><circle cx="212" cy="212" r="110.24000000000001" fill="none" stroke="#5C1A2B" stroke-width="1" opacity="0.5"></circle><g transform="translate(212 156.88) rotate(180)"><path d="M -25.439999999999998 0 Q 0 -10.600000000000001 25.439999999999998 0 Q 0 10.600000000000001 -25.439999999999998 0 Z" fill="#3E5C7A" stroke="#3F1019" stroke-width="1.2"></path><path d="M 25.439999999999998 0 L 36.04 -7.632 L 36.04 7.632 Z" fill="#3E5C7A" stroke="#3F1019" stroke-width="1.2"></path><circle cx="-16.96" cy="0" r="2.12" fill="#FAF5EA"></circle></g><g transform="translate(212 267.12) rotate(0)"><path d="M -25.439999999999998 0 Q 0 -10.600000000000001 25.439999999999998 0 Q 0 10.600000000000001 -25.439999999999998 0 Z" fill="#3E5C7A" stroke="#3F1019" stroke-width="1.2"></path><path d="M 25.439999999999998 0 L 36.04 -7.632 L 36.04 7.632 Z" fill="#3E5C7A" stroke="#3F1019" stroke-width="1.2"></path><circle cx="-16.96" cy="0" r="2.12" fill="#FAF5EA"></circle></g><g transform="translate(212 212)"><ellipse rx="16.112" ry="10.176" fill="#E0B964" stroke="#5C1A2B" stroke-width="1.2"></ellipse><line x1="-8.48" y1="0" x2="8.48" y2="0" stroke="#5C1A2B" stroke-width="1"></line><line x1="0" y1="-5.088" x2="0" y2="5.088" stroke="#5C1A2B" stroke-width="1"></line></g><g transform="translate(169.6 195.04)"><ellipse rx="16.112" ry="10.176" fill="#E0B964" stroke="#5C1A2B" stroke-width="1.2"></ellipse><line x1="-8.48" y1="0" x2="8.48" y2="0" stroke="#5C1A2B" stroke-width="1"></line><line x1="0" y1="-5.088" x2="0" y2="5.088" stroke="#5C1A2B" stroke-width="1"></line></g><g transform="translate(254.4 195.04)"><ellipse rx="16.112" ry="10.176" fill="#E0B964" stroke="#5C1A2B" stroke-width="1.2"></ellipse><line x1="-8.48" y1="0" x2="8.48" y2="0" stroke="#5C1A2B" stroke-width="1"></line><line x1="0" y1="-5.088" x2="0" y2="5.088" stroke="#5C1A2B" stroke-width="1"></line></g><g transform="translate(182.32 237.44)"><ellipse rx="16.112" ry="10.176" fill="#E0B964" stroke="#5C1A2B" stroke-width="1.2"></ellipse><line x1="-8.48" y1="0" x2="8.48" y2="0" stroke="#5C1A2B" stroke-width="1"></line><line x1="0" y1="-5.088" x2="0" y2="5.088" stroke="#5C1A2B" stroke-width="1"></line></g><g transform="translate(241.68 237.44)"><ellipse rx="16.112" ry="10.176" fill="#E0B964" stroke="#5C1A2B" stroke-width="1.2"></ellipse><line x1="-8.48" y1="0" x2="8.48" y2="0" stroke="#5C1A2B" stroke-width="1"></line><line x1="0" y1="-5.088" x2="0" y2="5.088" stroke="#5C1A2B" stroke-width="1"></line></g></g></svg></g><circle cx="300" cy="300" r="214" fill="none" stroke="#5C1A2B" stroke-width="2"></circle>
</svg>